<?xml version="1.0" standalone="no"?>
<!DOCTYPE svg PUBLIC "-//W3C//DTD SVG 20010904//EN"
 "http://www.w3.org/TR/2001/REC-SVG-20010904/DTD/svg10.dtd">
<svg version="1.0" xmlns="http://www.w3.org/2000/svg"
 width="512.000000pt" height="512.000000pt" viewBox="0 0 512.000000 512.000000"
 preserveAspectRatio="xMidYMid meet">
<metadata>
Created by potrace 1.11, written by Peter Selinger 2001-2013
</metadata>
<g transform="translate(0.000000,512.000000) scale(0.100000,-0.100000)"
fill="#000000" stroke="none">
<path d="M2825 5105 c-5 -2 -22 -6 -37 -9 -15 -4 -43 -20 -63 -37 -31 -28 -35
-36 -35 -83 0 -70 -8 -92 -39 -113 -24 -16 -58 -18 -371 -19 -190 -1 -372 -4
-405 -8 -63 -8 -200 -66 -245 -105 -14 -11 -34 -29 -45 -39 -30 -26 -88 -102
-112 -147 -58 -112 -72 -267 -35 -391 31 -101 66 -160 142 -234 85 -83 167
-125 305 -156 17 -3 343 -7 725 -9 725 -2 738 -3 822 -46 29 -15 40 -28 49
-62 28 -101 6 -191 -66 -263 -80 -80 -53 -78 -865 -80 -388 -1 -716 -4 -730
-8 -14 -3 -38 -8 -55 -12 -94 -19 -228 -131 -279 -233 -65 -127 -66 -297 -4
-349 40 -33 145 -30 176 4 24 26 49 85 58 130 8 46 45 99 82 118 69 35 122 37
823 40 382 2 708 6 724 10 148 34 238 83 327 181 47 50 103 155 119 221 65
268 -85 564 -321 633 -77 22 -140 24 -815 26 -634 1 -705 3 -751 18 -60 20
-100 54 -140 117 -25 40 -28 55 -29 125 0 70 4 86 29 133 17 29 48 66 70 83
73 54 97 56 512 57 304 1 390 4 423 16 125 43 171 122 175 301 3 121 -4 160
-31 181 -16 12 -64 17 -88 9z"/>
<path d="M548 2279 c-106 -17 -160 -87 -153 -199 10 -169 55 -381 121 -571
163 -470 469 -867 879 -1143 222 -149 565 -289 790 -321 23 -3 50 -7 60 -9
110 -21 393 -28 530 -14 252 26 470 90 710 208 693 339 1164 1032 1241 1826
11 116 -44 187 -171 221 -27 7 -3963 10 -4007 2z"/>
</g>
</svg>
